<svg width="16" height="16" fill="none" xmlns="http://www.w3.org/2000/svg"><g clip-path="url(#clip0_0_516)"><path fill-rule="evenodd" clip-rule="evenodd" d="M5.076 2.171v9.4c-.512-.107-1.107-.066-1.697.152-1.33.494-1.798 1.694-1.446 2.682.352.988 1.392 1.387 2.72.893 1.128-.418 1.867-1.348 1.849-2.223V5.31l5.624-1.288v5.964a3.108 3.108 0 00-1.699.153c-1.328.494-1.796 1.695-1.444 2.682.35.988 1.39 1.387 2.719.894 1.129-.42 1.867-1.349 1.85-2.223V.35L5.075 2.171z" fill="#fff"/></g><defs><clipPath id="clip0_0_516"><path fill="#fff" d="M0 0h16v16H0z"/></clipPath></defs></svg>